<svg width="20" height="21" viewBox="0 0 20 21" fill="none" xmlns="http://www.w3.org/2000/svg">
<path d="M14.55 11.51C15.3 11.51 15.96 11.1 16.3 10.48L19.88 3.98999C20.25 3.32999 19.77 2.50999 19.01 2.50999H4.21L3.27 0.509995H0V2.50999H2L5.6 10.1L4.25 12.54C3.52 13.88 4.48 15.51 6 15.51H18V13.51H6L7.1 11.51H14.55ZM5.16 4.50999H17.31L14.55 9.50999H7.53L5.16 4.50999ZM6 16.51C4.9 16.51 4.01 17.41 4.01 18.51C4.01 19.61 4.9 20.51 6 20.51C7.1 20.51 8 19.61 8 18.51C8 17.41 7.1 16.51 6 16.51ZM16 16.51C14.9 16.51 14.01 17.41 14.01 18.51C14.01 19.61 14.9 20.51 16 20.51C17.1 20.51 18 19.61 18 18.51C18 17.41 17.1 16.51 16 16.51Z" fill="#4B8B7A"/>
</svg>
